name analog
datacolumns 19
datarows 42
range 0.6455 0.666
endheader
time	ground_force_vx	ground_force_vy	ground_force_vz	ground_force_px	ground_force_py	ground_force_pz	l_ground_force_vx	l_ground_force_vy	l_ground_force_vz	l_ground_force_px	l_ground_force_py	l_ground_force_pz	ground_torque_x	ground_torque_y	ground_torque_z	l_ground_torque_x	l_ground_torque_y	l_ground_torque_z
0.6455	-0.0	-0.0	-0.0	7.926443099975586	22.02849006652832	-245.1595001220703	8.830326080322266	-22.99703598022461	-263.1752624511719	-0.0	-0.0	-0.0	-0.0	-0.0	-0.0	83949.9296875	-21004.771484375	3641.88671875
0.646	-0.0	-0.0	-0.0	5.409307479858398	22.09783935546875	-243.9093780517578	8.57119083404541	-23.03242492675781	-263.07183837890625	-0.0	-0.0	-0.0	-0.0	-0.0	-0.0	83855.359375	-20858.375	3628.18310546875
0.6465	-0.0	-0.0	-0.0	3.753227233886719	21.98021507263184	-239.1280975341797	8.734539031982422	-23.180984497070312	-263.4485778808594	-0.0	-0.0	-0.0	-0.0	-0.0	-0.0	83655.3671875	-20915.65234375	3706.006591796875
0.647	-0.0	-0.0	-0.0	3.141099452972412	22.496068954467773	-236.2279357910156	8.741415023803711	-23.23537826538086	-262.13250732421875	-0.0	-0.0	-0.0	-0.0	-0.0	-0.0	83388.421875	-20955.8515625	3664.962158203125
0.6475	-0.0	-0.0	-0.0	4.02668046951294	22.70503234863281	-234.18246459960935	9.286940574645996	-23.75189781188965	-262.8849182128906	-0.0	-0.0	-0.0	-0.0	-0.0	-0.0	83503.5625	-20916.5234375	3754.187255859375
0.648	-0.0	-0.0	-0.0	5.554940700531006	22.74018669128418	-234.74717712402344	9.280078887939451	-23.6227970123291	-265.0575561523437	-0.0	-0.0	-0.0	-0.0	-0.0	-0.0	83579.796875	-20974.482421875	3797.59716796875
0.6485	-0.0	-0.0	-0.0	7.761314392089844	22.50834274291992	-235.40599060058597	9.546012878417969	-23.61648941040039	-264.7073059082031	-0.0	-0.0	-0.0	-0.0	-0.0	-0.0	83751.515625	-21071.96875	3906.964599609375
0.649	-0.0	-0.0	-0.0	9.408848762512209	21.61126518249512	-234.9326019287109	9.621977806091309	-23.746021270751957	-266.7765808105469	-0.0	-0.0	-0.0	-0.0	-0.0	-0.0	84314.2890625	-21152.4765625	4082.768798828125
0.6495	-0.0	-0.0	-0.0	10.217392921447754	21.61133575439453	-233.7609405517578	9.75204372406006	-24.082948684692383	-267.522705078125	-0.0	-0.0	-0.0	-0.0	-0.0	-0.0	84809.4375	-21284.576171875	3935.86572265625
0.65	-0.0	-0.0	-0.0	10.994665145874023	21.83694839477539	-232.11883544921875	9.574758529663086	-24.70086097717285	-267.1246337890625	-0.0	-0.0	-0.0	-0.0	-0.0	-0.0	85397.625	-21325.759765625	3963.697998046875
0.6505	-0.0	-0.0	-0.0	11.906947135925291	21.73720359802246	-233.80511474609372	9.456513404846191	-24.877180099487305	-270.1728515625	-0.0	-0.0	-0.0	-0.0	-0.0	-0.0	85594.2578125	-21277.37890625	3797.404052734375
0.651	-0.0	-0.0	-0.0	12.494641304016112	22.329748153686523	-235.1768951416016	8.652169227600098	-25.383920669555664	-270.9642639160156	-0.0	-0.0	-0.0	-0.0	-0.0	-0.0	86195.1796875	-21454.009765625	3606.763671875
0.6515	-0.0	-0.0	-0.0	12.363231658935549	22.423864364624023	-234.9912567138672	8.480303764343262	-25.88943672180176	-272.7095031738281	-0.0	-0.0	-0.0	-0.0	-0.0	-0.0	86387.3828125	-21489.205078125	3632.361083984375
0.652	-0.0	-0.0	-0.0	11.99635887145996	22.54018211364746	-234.9926605224609	8.449426651000977	-25.712512969970703	-271.9244384765625	-0.0	-0.0	-0.0	-0.0	-0.0	-0.0	86641.203125	-21456.41015625	3620.322265625
0.6525	-0.0	-0.0	-0.0	11.949440002441406	22.151287078857425	-236.2584991455078	8.959789276123047	-26.013391494750977	-272.6874389648437	-0.0	-0.0	-0.0	-0.0	-0.0	-0.0	87225.59375	-21575.078125	3793.194091796875
0.653	-0.0	-0.0	-0.0	11.71956729888916	22.587594985961918	-234.2705078125	8.980643272399902	-26.065279006958008	-274.6180114746094	-0.0	-0.0	-0.0	-0.0	-0.0	-0.0	87361.8203125	-21754.673828125	3678.107421875
0.6535	-0.0	-0.0	-0.0	11.733433723449709	22.639122009277344	-235.5353546142578	8.777295112609863	-26.211339950561523	-275.44073486328125	-0.0	-0.0	-0.0	-0.0	-0.0	-0.0	87828.78125	-21748.75	3737.25390625
0.654	-0.0	-0.0	-0.0	11.0664701461792	22.5880126953125	-237.8580322265625	8.693656921386719	-26.27324485778809	-275.82977294921875	-0.0	-0.0	-0.0	-0.0	-0.0	-0.0	88092.9375	-21753.412109375	3545.187744140625
0.6545	-0.0	-0.0	-0.0	8.606690406799316	23.110246658325195	-236.98373413085935	7.633942604064941	-26.22674560546875	-277.9246826171875	-0.0	-0.0	-0.0	-0.0	-0.0	-0.0	88321.25	-21762.8984375	3439.796142578125
0.655	-0.0	-0.0	-0.0	6.779998779296875	22.91881561279297	-239.23876953125	6.928789615631104	-26.42679786682129	-278.78839111328125	-0.0	-0.0	-0.0	-0.0	-0.0	-0.0	88183.75	-21663.763671875	3100.451904296875
0.6555	-0.0	-0.0	-0.0	5.077033042907715	23.038219451904297	-238.59669494628903	6.64875602722168	-26.64031982421875	-277.61138916015625	-0.0	-0.0	-0.0	-0.0	-0.0	-0.0	88222.4140625	-21719.490234375	2959.798828125
0.656	-0.0	-0.0	-0.0	4.227894306182861	23.12742042541504	-237.4129638671875	6.200929164886475	-26.366220474243164	-277.0083923339844	-0.0	-0.0	-0.0	-0.0	-0.0	-0.0	88109.3359375	-21833.29296875	3051.633544921875
0.6565	-0.0	-0.0	-0.0	4.053526878356934	22.546293258666992	-236.82911682128903	6.826457977294922	-26.11394691467285	-277.7585144042969	-0.0	-0.0	-0.0	-0.0	-0.0	-0.0	88322.0703125	-21801.453125	3127.063720703125
0.657	-0.0	-0.0	-0.0	4.499759674072266	22.271867752075195	-236.81423950195312	7.413580894470215	-26.14735412597656	-276.5117492675781	-0.0	-0.0	-0.0	-0.0	-0.0	-0.0	88316.8515625	-21943.861328125	3273.03564453125
0.6575	-0.0	-0.0	-0.0	5.584253787994385	22.41457748413086	-239.13003540039065	7.57875394821167	-25.966575622558597	-279.3212890625	-0.0	-0.0	-0.0	-0.0	-0.0	-0.0	88208.53125	-21681.4921875	3260.49755859375
0.658	-0.0	-0.0	-0.0	5.762333393096924	22.64242172241211	-239.2728729248047	7.143156051635742	-26.492647171020508	-278.4407958984375	-0.0	-0.0	-0.0	-0.0	-0.0	-0.0	88443.9453125	-21938.21875	3156.923583984375
0.6585	-0.0	-0.0	-0.0	5.937260150909424	22.503841400146484	-240.3075256347656	6.248488426208496	-26.36588859558105	-278.4410400390625	-0.0	-0.0	-0.0	-0.0	-0.0	-0.0	88307.65625	-21805.55078125	2935.740478515625
0.659	-0.0	-0.0	-0.0	5.534083843231201	22.86043357849121	-241.40447998046875	5.54622745513916	-25.874662399291992	-277.9673156738281	-0.0	-0.0	-0.0	-0.0	-0.0	-0.0	88343.3203125	-21839.775390625	2931.699951171875
0.6595	-0.0	-0.0	-0.0	5.522312641143799	22.59601211547852	-241.7689666748047	5.631390571594238	-25.740562438964844	-278.9858703613281	-0.0	-0.0	-0.0	-0.0	-0.0	-0.0	88101.6484375	-21779.078125	2876.045166015625
0.66	-0.0	-0.0	-0.0	5.579814434051514	22.67676544189453	-241.061767578125	5.950317859649658	-26.22820854187012	-278.0926818847656	-0.0	-0.0	-0.0	-0.0	-0.0	-0.0	88230.84375	-21798.533203125	2933.190673828125
0.6605	-0.0	-0.0	-0.0	4.903947830200195	22.865890502929688	-240.70774841308597	6.157382011413574	-26.146411895751957	-277.0455017089844	-0.0	-0.0	-0.0	-0.0	-0.0	-0.0	88061.6640625	-21578.25390625	2980.582763671875
0.661	-0.0	-0.0	-0.0	5.005851745605469	22.725738525390625	-241.5750732421875	6.488256931304932	-26.22230339050293	-276.50372314453125	-0.0	-0.0	-0.0	-0.0	-0.0	-0.0	88067.703125	-21443.751953125	3041.10302734375
0.6615	-0.0	-0.0	-0.0	5.087372779846191	23.12815284729004	-240.50613403320312	6.833681583404541	-26.505321502685547	-276.1557312011719	-0.0	-0.0	-0.0	-0.0	-0.0	-0.0	87880.4296875	-21565.33203125	3176.127685546875
0.662	-0.0	-0.0	-0.0	5.309138774871826	23.11709976196289	-242.46243286132807	6.919441223144531	-26.76147079467773	-276.68609619140625	-0.0	-0.0	-0.0	-0.0	-0.0	-0.0	87569.0859375	-21534.37109375	3095.67041015625
0.6625	-0.0	-0.0	-0.0	5.400399208068848	23.443403244018555	-241.24693298339844	6.879117488861084	-26.852468490600582	-276.1683349609375	-0.0	-0.0	-0.0	-0.0	-0.0	-0.0	87837.640625	-21480.400390625	3230.553955078125
0.663	-0.0	-0.0	-0.0	5.001689434051514	23.39771270751953	-241.3868103027344	7.005605697631836	-27.198007583618164	-276.528076171875	-0.0	-0.0	-0.0	-0.0	-0.0	-0.0	87917.125	-21325.37890625	3126.353271484375
0.6635	-0.0	-0.0	-0.0	4.773677349090576	23.625043869018555	-240.85421752929688	6.559778690338135	-27.599327087402344	-277.0660400390625	-0.0	-0.0	-0.0	-0.0	-0.0	-0.0	87973.703125	-21140.89453125	3011.375732421875
0.664	-0.0	-0.0	-0.0	4.637246608734131	23.976078033447266	-239.8091735839844	5.272591590881348	-27.46577453613281	-276.8503112792969	-0.0	-0.0	-0.0	-0.0	-0.0	-0.0	87898.4921875	-21190.193359375	2785.193115234375
0.6645	-0.0	-0.0	-0.0	3.964375495910645	24.019859313964844	-241.2032623291016	5.0132341384887695	-27.82775115966797	-276.0170593261719	-0.0	-0.0	-0.0	-0.0	-0.0	-0.0	87428.53125	-21112.59375	2740.061767578125
0.665	-0.0	-0.0	-0.0	2.856189250946045	23.886947631835938	-240.5155334472656	5.411357879638672	-28.21574211120605	-276.3495178222656	-0.0	-0.0	-0.0	-0.0	-0.0	-0.0	87377.9921875	-21094.80078125	2798.9140625
0.6655	-0.0	-0.0	-0.0	2.185002088546753	23.929548263549805	-238.93919372558597	5.277345657348633	-27.466161727905277	-275.8446655273437	-0.0	-0.0	-0.0	-0.0	-0.0	-0.0	87504.9453125	-21252.20703125	2815.493408203125
0.666	-0.0	-0.0	-0.0	1.1967281103134155	23.935609817504883	-238.39181518554688	5.675736904144287	-27.693212509155277	-275.81597900390625	-0.0	-0.0	-0.0	-0.0	-0.0	-0.0	87486.3828125	-21170.6328125	2977.945556640625
